<?xml version="1.0" standalone="no"?>
<!DOCTYPE svg PUBLIC "-//W3C//DTD SVG 20010904//EN"
 "http://www.w3.org/TR/2001/REC-SVG-20010904/DTD/svg10.dtd">
<svg version="1.0" xmlns="http://www.w3.org/2000/svg"
 width="450.000000pt" height="470.000000pt" viewBox="0 0 450.000000 470.000000"
 preserveAspectRatio="xMidYMid meet">
<metadata>
Created by potrace 1.11, written by Peter Selinger 2001-2013
</metadata>
<g transform="translate(0.000000,470.000000) scale(0.100000,-0.100000)"
fill="#000000" stroke="none">
<path d="M2740 4493 c-8 -2 -22 -7 -30 -10 -8 -3 -67 -6 -130 -7 -141 -1 -176
-15 -282 -110 -160 -142 -185 -180 -229 -346 -31 -114 -34 -388 -6 -490 39
-144 99 -220 172 -220 71 0 125 52 180 173 l27 57 30 -21 c53 -38 157 -69 235
-69 l72 0 -5 -37 c-31 -238 -69 -372 -154 -546 -47 -97 -76 -147 -250 -432
-94 -154 -162 -296 -195 -410 -31 -107 -43 -261 -26 -350 13 -71 84 -219 141
-294 23 -29 39 -55 37 -58 -3 -2 -34 1 -70 8 l-65 12 -57 156 c-171 464 -215
681 -198 976 l6 110 116 0 c137 1 201 21 274 86 68 59 97 127 108 251 5 57 20
170 33 253 14 82 24 151 22 152 -2 2 -38 -37 -81 -87 l-77 -90 -46 41 c-54 47
-148 94 -222 110 -29 6 -91 9 -137 7 -45 -2 -83 -2 -83 1 0 15 -40 234 -43
237 -1 2 -34 -72 -72 -164 -38 -92 -83 -198 -101 -237 -40 -86 -48 -137 -35
-208 15 -80 47 -143 108 -204 29 -30 53 -57 53 -59 0 -3 -15 -28 -33 -57 -132
-207 -299 -573 -400 -877 -28 -85 -52 -156 -52 -157 -1 -2 -80 20 -176 47 -96
28 -182 50 -191 50 -45 0 -59 -101 -23 -157 19 -29 21 -30 209 -85 l148 -43
-6 -56 c-13 -112 36 -374 89 -478 39 -78 183 -191 275 -216 14 -4 90 -37 170
-75 353 -167 529 -190 1105 -145 99 8 225 17 280 21 122 8 135 14 135 59 0 61
-22 67 -201 55 -481 -31 -570 -33 -706 -21 -126 11 -224 27 -318 52 l-40 11
63 20 c155 47 209 184 171 429 -6 39 -9 72 -7 75 3 2 49 -3 104 -11 125 -19
294 -19 387 -1 40 8 92 18 117 21 65 10 220 67 294 109 91 51 212 143 274 210
35 37 68 87 97 149 116 246 139 433 85 697 -65 317 -298 849 -538 1224 l-49
78 26 47 25 48 61 -28 c97 -46 177 -34 211 33 25 49 15 163 -24 263 -40 102
-129 239 -216 332 -124 133 -290 222 -366 196z"/>
</g>
</svg>
